<svg width="1440" height="960" viewBox="0 0 1440 960" fill="none" xmlns="http://www.w3.org/2000/svg">
<g clip-path="url(#clip0_390_14967)">
<rect width="1440" height="960" fill="url(#paint0_linear_390_14967)"/>
<ellipse cx="127.5" cy="39" rx="228.5" ry="234" fill="url(#paint1_linear_390_14967)" fill-opacity="0.4"/>
<ellipse cx="1463.5" cy="544.5" rx="300.5" ry="307.5" fill="url(#paint2_linear_390_14967)" fill-opacity="0.4"/>
<circle cx="181" cy="539" r="54" transform="rotate(-43.6728 181 539)" fill="url(#paint3_linear_390_14967)"/>
<circle cx="599.347" cy="686.347" r="52.5" transform="rotate(-43.6728 599.347 686.347)" stroke="url(#paint4_linear_390_14967)" stroke-width="3"/>
<circle cx="1102.01" cy="137.009" r="28.9203" transform="rotate(-0.283484 1102.01 137.009)" stroke="url(#paint5_linear_390_14967)" stroke-width="3"/>
<circle cx="300.009" cy="202.009" r="28.9203" transform="rotate(-7.75216 300.009 202.009)" stroke="url(#paint6_linear_390_14967)" stroke-width="3"/>
<circle cx="885.5" cy="436.5" r="108.5" fill="url(#paint7_linear_390_14967)"/>
<circle cx="553.257" cy="138.257" r="36" transform="rotate(99.1326 553.257 138.257)" fill="url(#paint8_linear_390_14967)"/>
<path d="M-114 1050.68C-114 1050.68 88.4315 960.448 224.885 963.055C361.339 965.663 485.797 1103.35 649.242 1080.93C812.686 1058.5 800.191 990.176 963.136 984.961C1126.08 979.745 1364 1119 1364 1119" stroke="url(#paint9_linear_390_14967)" stroke-opacity="0.1" stroke-width="300"/>
<path d="M-327 1017.68C-327 1017.68 -41.4318 927.448 151.062 930.055C343.556 932.663 519.128 1070.35 749.698 1047.93C980.268 1025.5 962.64 957.176 1192.5 951.961C1422.37 946.745 1758 1086 1758 1086" stroke="#315EFB" stroke-opacity="0.2" stroke-width="300"/>
<path d="M1772 1017.68C1772 1017.68 1530.94 927.448 1368.46 930.055C1205.97 932.663 1057.76 1070.35 863.133 1047.93C668.503 1025.5 683.383 957.176 489.349 951.961C295.314 946.745 11.9999 1086 11.9999 1086" stroke="#315EFB" stroke-opacity="0.1" stroke-width="300"/>
</g>
<defs>
<linearGradient id="paint0_linear_390_14967" x1="720" y1="2.39163e-06" x2="720" y2="2272" gradientUnits="userSpaceOnUse">
<stop stop-color="#CAD5FF"/>
<stop offset="0.165086" stop-color="#CDD8FF"/>
<stop offset="1" stop-color="white"/>
</linearGradient>
<linearGradient id="paint1_linear_390_14967" x1="385" y1="21" x2="12" y2="278.5" gradientUnits="userSpaceOnUse">
<stop stop-color="white"/>
<stop offset="1" stop-color="white" stop-opacity="0"/>
</linearGradient>
<linearGradient id="paint2_linear_390_14967" x1="1463.5" y1="237" x2="1463.5" y2="852" gradientUnits="userSpaceOnUse">
<stop stop-color="white"/>
<stop offset="1" stop-color="white" stop-opacity="0"/>
</linearGradient>
<linearGradient id="paint3_linear_390_14967" x1="181" y1="485" x2="181" y2="593" gradientUnits="userSpaceOnUse">
<stop stop-color="white"/>
<stop offset="1" stop-color="white" stop-opacity="0"/>
</linearGradient>
<linearGradient id="paint4_linear_390_14967" x1="599.347" y1="632.347" x2="602.042" y2="756.877" gradientUnits="userSpaceOnUse">
<stop stop-color="white"/>
<stop offset="1" stop-color="white" stop-opacity="0"/>
</linearGradient>
<linearGradient id="paint5_linear_390_14967" x1="1102.01" y1="106.588" x2="1101.78" y2="180.999" gradientUnits="userSpaceOnUse">
<stop stop-color="white"/>
<stop offset="1" stop-color="white" stop-opacity="0"/>
</linearGradient>
<linearGradient id="paint6_linear_390_14967" x1="300.009" y1="171.588" x2="301.407" y2="243.568" gradientUnits="userSpaceOnUse">
<stop stop-color="white"/>
<stop offset="1" stop-color="white" stop-opacity="0"/>
</linearGradient>
<linearGradient id="paint7_linear_390_14967" x1="885.5" y1="328" x2="885.5" y2="545" gradientUnits="userSpaceOnUse">
<stop stop-color="white"/>
<stop offset="1" stop-color="white" stop-opacity="0"/>
</linearGradient>
<linearGradient id="paint8_linear_390_14967" x1="517.257" y1="112.757" x2="553.257" y2="174.257" gradientUnits="userSpaceOnUse">
<stop stop-color="white"/>
<stop offset="1" stop-color="white" stop-opacity="0"/>
</linearGradient>
<linearGradient id="paint9_linear_390_14967" x1="625" y1="857" x2="625" y2="1056.5" gradientUnits="userSpaceOnUse">
<stop stop-color="#2351F0"/>
<stop offset="1" stop-color="#315EFB"/>
</linearGradient>
<clipPath id="clip0_390_14967">
<rect width="1440" height="960" fill="white"/>
</clipPath>
</defs>
</svg>
