<svg width="29" height="29" viewBox="0 0 29 29" fill="none" xmlns="http://www.w3.org/2000/svg">
<g id="bahtsign.circle">
<path id="bahtsign.circle_2" d="M14.3247 23.2422C19.3081 23.2422 23.4214 19.1289 23.4214 14.1543C23.4214 9.17969 19.2993 5.06641 14.3159 5.06641C9.34131 5.06641 5.23682 9.17969 5.23682 14.1543C5.23682 19.1289 9.3501 23.2422 14.3247 23.2422ZM14.3247 21.4316C10.2905 21.4316 7.06494 18.1885 7.06494 14.1543C7.06494 10.1201 10.2905 6.88574 14.3159 6.88574C18.3501 6.88574 21.5933 10.1201 21.6021 14.1543C21.6108 18.1885 18.3589 21.4316 14.3247 21.4316ZM14.439 19.208C14.6675 19.208 14.8433 19.041 14.8433 18.8037V18.2236H15.019C16.645 18.2236 17.6733 17.3359 17.6733 15.9297C17.6733 14.9893 17.0845 14.251 16.1968 13.9873C16.8384 13.6797 17.2954 13.0029 17.2954 12.2734C17.2954 11.0693 16.3813 10.2168 15.0015 10.2168H14.8433V9.58398C14.8433 9.33789 14.6675 9.1709 14.439 9.1709C14.2017 9.1709 14.0259 9.33789 14.0259 9.58398V10.2168H12.6899C12.2241 10.2168 11.9165 10.5332 11.9165 11.0078V17.4414C11.9165 17.916 12.2153 18.2236 12.6899 18.2236H14.0259V18.8037C14.0259 19.041 14.2017 19.208 14.439 19.208ZM13.2524 13.5566V11.3594H14.0259V13.5566H13.2524ZM14.8433 13.5215V11.377C15.5815 11.4385 15.9771 11.7988 15.9771 12.4141C15.9771 13.0293 15.5903 13.416 14.8433 13.5215ZM13.2524 17.0811V14.6465H14.0259V17.0723L13.2524 17.0811ZM14.8433 17.0723V14.6553C15.8364 14.7168 16.3286 15.1211 16.3286 15.8594C16.3286 16.6152 15.8364 17.0283 14.8433 17.0723Z" fill="#72E128"/>
</g>
</svg>
